<mxfile host="app.diagrams.net" modified="2021-07-11T19:37:30.783Z" agent="5.0 (Windows)" etag="UsA0L8VK35HGnHCWo6iO" version="14.7.7" type="github">
  <diagram id="7g-w7Xl56w8nulAUlvU4" name="Page-1">
    <mxGraphModel dx="1038" dy="536" grid="1" gridSize="10" guides="1" tooltips="1" connect="1" arrows="1" fold="1" page="1" pageScale="1" pageWidth="1100" pageHeight="1700" math="0" shadow="0">
      <root>
        <mxCell id="0" />
        <mxCell id="1" parent="0" />
        <mxCell id="4VfXRkIPEN1HTYIcU7Gu-1" value="Table" style="shape=table;startSize=30;container=1;collapsible=1;childLayout=tableLayout;fixedRows=1;rowLines=0;fontStyle=1;align=center;resizeLast=1;" vertex="1" parent="1">
          <mxGeometry x="70" y="60" width="180" height="190" as="geometry" />
        </mxCell>
        <mxCell id="4VfXRkIPEN1HTYIcU7Gu-2" value="" style="shape=partialRectangle;collapsible=0;dropTarget=0;pointerEvents=0;fillColor=none;top=0;left=0;bottom=1;right=0;points=[[0,0.5],[1,0.5]];portConstraint=eastwest;" vertex="1" parent="4VfXRkIPEN1HTYIcU7Gu-1">
          <mxGeometry y="30" width="180" height="30" as="geometry" />
        </mxCell>
        <mxCell id="4VfXRkIPEN1HTYIcU7Gu-3" value="PK" style="shape=partialRectangle;connectable=0;fillColor=none;top=0;left=0;bottom=0;right=0;fontStyle=1;overflow=hidden;" vertex="1" parent="4VfXRkIPEN1HTYIcU7Gu-2">
          <mxGeometry width="30" height="30" as="geometry" />
        </mxCell>
        <mxCell id="4VfXRkIPEN1HTYIcU7Gu-4" value="UniqueID" style="shape=partialRectangle;connectable=0;fillColor=none;top=0;left=0;bottom=0;right=0;align=left;spacingLeft=6;fontStyle=5;overflow=hidden;" vertex="1" parent="4VfXRkIPEN1HTYIcU7Gu-2">
          <mxGeometry x="30" width="150" height="30" as="geometry" />
        </mxCell>
        <mxCell id="4VfXRkIPEN1HTYIcU7Gu-5" value="" style="shape=partialRectangle;collapsible=0;dropTarget=0;pointerEvents=0;fillColor=none;top=0;left=0;bottom=0;right=0;points=[[0,0.5],[1,0.5]];portConstraint=eastwest;" vertex="1" parent="4VfXRkIPEN1HTYIcU7Gu-1">
          <mxGeometry y="60" width="180" height="30" as="geometry" />
        </mxCell>
        <mxCell id="4VfXRkIPEN1HTYIcU7Gu-6" value="" style="shape=partialRectangle;connectable=0;fillColor=none;top=0;left=0;bottom=0;right=0;editable=1;overflow=hidden;" vertex="1" parent="4VfXRkIPEN1HTYIcU7Gu-5">
          <mxGeometry width="30" height="30" as="geometry" />
        </mxCell>
        <mxCell id="4VfXRkIPEN1HTYIcU7Gu-7" value="Row 1" style="shape=partialRectangle;connectable=0;fillColor=none;top=0;left=0;bottom=0;right=0;align=left;spacingLeft=6;overflow=hidden;" vertex="1" parent="4VfXRkIPEN1HTYIcU7Gu-5">
          <mxGeometry x="30" width="150" height="30" as="geometry" />
        </mxCell>
        <mxCell id="4VfXRkIPEN1HTYIcU7Gu-8" value="" style="shape=partialRectangle;collapsible=0;dropTarget=0;pointerEvents=0;fillColor=none;top=0;left=0;bottom=0;right=0;points=[[0,0.5],[1,0.5]];portConstraint=eastwest;" vertex="1" parent="4VfXRkIPEN1HTYIcU7Gu-1">
          <mxGeometry y="90" width="180" height="30" as="geometry" />
        </mxCell>
        <mxCell id="4VfXRkIPEN1HTYIcU7Gu-9" value="" style="shape=partialRectangle;connectable=0;fillColor=none;top=0;left=0;bottom=0;right=0;editable=1;overflow=hidden;" vertex="1" parent="4VfXRkIPEN1HTYIcU7Gu-8">
          <mxGeometry width="30" height="30" as="geometry" />
        </mxCell>
        <mxCell id="4VfXRkIPEN1HTYIcU7Gu-10" value="Row 2" style="shape=partialRectangle;connectable=0;fillColor=none;top=0;left=0;bottom=0;right=0;align=left;spacingLeft=6;overflow=hidden;" vertex="1" parent="4VfXRkIPEN1HTYIcU7Gu-8">
          <mxGeometry x="30" width="150" height="30" as="geometry" />
        </mxCell>
        <mxCell id="4VfXRkIPEN1HTYIcU7Gu-11" value="" style="shape=partialRectangle;collapsible=0;dropTarget=0;pointerEvents=0;fillColor=none;top=0;left=0;bottom=0;right=0;points=[[0,0.5],[1,0.5]];portConstraint=eastwest;" vertex="1" parent="4VfXRkIPEN1HTYIcU7Gu-1">
          <mxGeometry y="120" width="180" height="30" as="geometry" />
        </mxCell>
        <mxCell id="4VfXRkIPEN1HTYIcU7Gu-12" value="" style="shape=partialRectangle;connectable=0;fillColor=none;top=0;left=0;bottom=0;right=0;editable=1;overflow=hidden;" vertex="1" parent="4VfXRkIPEN1HTYIcU7Gu-11">
          <mxGeometry width="30" height="30" as="geometry" />
        </mxCell>
        <mxCell id="4VfXRkIPEN1HTYIcU7Gu-13" value="Row 3" style="shape=partialRectangle;connectable=0;fillColor=none;top=0;left=0;bottom=0;right=0;align=left;spacingLeft=6;overflow=hidden;" vertex="1" parent="4VfXRkIPEN1HTYIcU7Gu-11">
          <mxGeometry x="30" width="150" height="30" as="geometry" />
        </mxCell>
        <mxCell id="4VfXRkIPEN1HTYIcU7Gu-32" value="" style="shape=partialRectangle;collapsible=0;dropTarget=0;pointerEvents=0;fillColor=none;top=0;left=0;bottom=0;right=0;points=[[0,0.5],[1,0.5]];portConstraint=eastwest;" vertex="1" parent="4VfXRkIPEN1HTYIcU7Gu-1">
          <mxGeometry y="150" width="180" height="30" as="geometry" />
        </mxCell>
        <mxCell id="4VfXRkIPEN1HTYIcU7Gu-33" value="" style="shape=partialRectangle;connectable=0;fillColor=none;top=0;left=0;bottom=0;right=0;editable=1;overflow=hidden;" vertex="1" parent="4VfXRkIPEN1HTYIcU7Gu-32">
          <mxGeometry width="30" height="30" as="geometry" />
        </mxCell>
        <mxCell id="4VfXRkIPEN1HTYIcU7Gu-34" value="Row 3" style="shape=partialRectangle;connectable=0;fillColor=none;top=0;left=0;bottom=0;right=0;align=left;spacingLeft=6;overflow=hidden;" vertex="1" parent="4VfXRkIPEN1HTYIcU7Gu-32">
          <mxGeometry x="30" width="150" height="30" as="geometry" />
        </mxCell>
        <mxCell id="4VfXRkIPEN1HTYIcU7Gu-14" value="Table" style="shape=table;startSize=30;container=1;collapsible=1;childLayout=tableLayout;fixedRows=1;rowLines=0;fontStyle=1;align=center;resizeLast=1;" vertex="1" parent="1">
          <mxGeometry x="580" y="100" width="180" height="190" as="geometry" />
        </mxCell>
        <mxCell id="4VfXRkIPEN1HTYIcU7Gu-15" value="" style="shape=partialRectangle;collapsible=0;dropTarget=0;pointerEvents=0;fillColor=none;top=0;left=0;bottom=0;right=0;points=[[0,0.5],[1,0.5]];portConstraint=eastwest;" vertex="1" parent="4VfXRkIPEN1HTYIcU7Gu-14">
          <mxGeometry y="30" width="180" height="60" as="geometry" />
        </mxCell>
        <mxCell id="4VfXRkIPEN1HTYIcU7Gu-16" value="PK,FK1" style="shape=partialRectangle;connectable=0;fillColor=none;top=0;left=0;bottom=0;right=0;fontStyle=1;overflow=hidden;" vertex="1" parent="4VfXRkIPEN1HTYIcU7Gu-15">
          <mxGeometry width="60" height="60" as="geometry" />
        </mxCell>
        <mxCell id="4VfXRkIPEN1HTYIcU7Gu-17" value="Row 1" style="shape=partialRectangle;connectable=0;fillColor=none;top=0;left=0;bottom=0;right=0;align=left;spacingLeft=6;fontStyle=5;overflow=hidden;" vertex="1" parent="4VfXRkIPEN1HTYIcU7Gu-15">
          <mxGeometry x="60" width="120" height="60" as="geometry" />
        </mxCell>
        <mxCell id="4VfXRkIPEN1HTYIcU7Gu-18" value="" style="shape=partialRectangle;collapsible=0;dropTarget=0;pointerEvents=0;fillColor=none;top=0;left=0;bottom=1;right=0;points=[[0,0.5],[1,0.5]];portConstraint=eastwest;" vertex="1" parent="4VfXRkIPEN1HTYIcU7Gu-14">
          <mxGeometry y="90" width="180" height="30" as="geometry" />
        </mxCell>
        <mxCell id="4VfXRkIPEN1HTYIcU7Gu-19" value="PK,FK2" style="shape=partialRectangle;connectable=0;fillColor=none;top=0;left=0;bottom=0;right=0;fontStyle=1;overflow=hidden;" vertex="1" parent="4VfXRkIPEN1HTYIcU7Gu-18">
          <mxGeometry width="60" height="30" as="geometry" />
        </mxCell>
        <mxCell id="4VfXRkIPEN1HTYIcU7Gu-20" value="Row 2" style="shape=partialRectangle;connectable=0;fillColor=none;top=0;left=0;bottom=0;right=0;align=left;spacingLeft=6;fontStyle=5;overflow=hidden;" vertex="1" parent="4VfXRkIPEN1HTYIcU7Gu-18">
          <mxGeometry x="60" width="120" height="30" as="geometry" />
        </mxCell>
        <mxCell id="4VfXRkIPEN1HTYIcU7Gu-21" value="" style="shape=partialRectangle;collapsible=0;dropTarget=0;pointerEvents=0;fillColor=none;top=0;left=0;bottom=0;right=0;points=[[0,0.5],[1,0.5]];portConstraint=eastwest;" vertex="1" parent="4VfXRkIPEN1HTYIcU7Gu-14">
          <mxGeometry y="120" width="180" height="30" as="geometry" />
        </mxCell>
        <mxCell id="4VfXRkIPEN1HTYIcU7Gu-22" value="" style="shape=partialRectangle;connectable=0;fillColor=none;top=0;left=0;bottom=0;right=0;editable=1;overflow=hidden;" vertex="1" parent="4VfXRkIPEN1HTYIcU7Gu-21">
          <mxGeometry width="60" height="30" as="geometry" />
        </mxCell>
        <mxCell id="4VfXRkIPEN1HTYIcU7Gu-23" value="Row 3" style="shape=partialRectangle;connectable=0;fillColor=none;top=0;left=0;bottom=0;right=0;align=left;spacingLeft=6;overflow=hidden;" vertex="1" parent="4VfXRkIPEN1HTYIcU7Gu-21">
          <mxGeometry x="60" width="120" height="30" as="geometry" />
        </mxCell>
        <mxCell id="4VfXRkIPEN1HTYIcU7Gu-24" value="" style="shape=partialRectangle;collapsible=0;dropTarget=0;pointerEvents=0;fillColor=none;top=0;left=0;bottom=0;right=0;points=[[0,0.5],[1,0.5]];portConstraint=eastwest;" vertex="1" parent="4VfXRkIPEN1HTYIcU7Gu-14">
          <mxGeometry y="150" width="180" height="30" as="geometry" />
        </mxCell>
        <mxCell id="4VfXRkIPEN1HTYIcU7Gu-25" value="" style="shape=partialRectangle;connectable=0;fillColor=none;top=0;left=0;bottom=0;right=0;editable=1;overflow=hidden;" vertex="1" parent="4VfXRkIPEN1HTYIcU7Gu-24">
          <mxGeometry width="60" height="30" as="geometry" />
        </mxCell>
        <mxCell id="4VfXRkIPEN1HTYIcU7Gu-26" value="Row 4" style="shape=partialRectangle;connectable=0;fillColor=none;top=0;left=0;bottom=0;right=0;align=left;spacingLeft=6;overflow=hidden;" vertex="1" parent="4VfXRkIPEN1HTYIcU7Gu-24">
          <mxGeometry x="60" width="120" height="30" as="geometry" />
        </mxCell>
        <mxCell id="4VfXRkIPEN1HTYIcU7Gu-27" value="Entity" style="swimlane;childLayout=stackLayout;horizontal=1;startSize=30;horizontalStack=0;rounded=1;fontSize=14;fontStyle=0;strokeWidth=2;resizeParent=0;resizeLast=1;shadow=0;dashed=0;align=center;" vertex="1" parent="1">
          <mxGeometry x="180" y="370" width="160" height="120" as="geometry" />
        </mxCell>
        <mxCell id="4VfXRkIPEN1HTYIcU7Gu-28" value="+Attribute1&#xa;+Attribute2&#xa;+Attribute3" style="align=left;strokeColor=none;fillColor=none;spacingLeft=4;fontSize=12;verticalAlign=top;resizable=0;rotatable=0;part=1;" vertex="1" parent="4VfXRkIPEN1HTYIcU7Gu-27">
          <mxGeometry y="30" width="160" height="90" as="geometry" />
        </mxCell>
        <mxCell id="4VfXRkIPEN1HTYIcU7Gu-29" value="Entity" style="swimlane;childLayout=stackLayout;horizontal=1;startSize=30;horizontalStack=0;rounded=1;fontSize=14;fontStyle=0;strokeWidth=2;resizeParent=0;resizeLast=1;shadow=0;dashed=0;align=center;" vertex="1" parent="1">
          <mxGeometry x="530" y="390" width="160" height="120" as="geometry" />
        </mxCell>
        <mxCell id="4VfXRkIPEN1HTYIcU7Gu-30" value="+Attribute1&#xa;+Attribute2&#xa;+Attribute3" style="align=left;strokeColor=none;fillColor=none;spacingLeft=4;fontSize=12;verticalAlign=top;resizable=0;rotatable=0;part=1;" vertex="1" parent="4VfXRkIPEN1HTYIcU7Gu-29">
          <mxGeometry y="30" width="160" height="90" as="geometry" />
        </mxCell>
        <mxCell id="4VfXRkIPEN1HTYIcU7Gu-31" value="" style="edgeStyle=entityRelationEdgeStyle;fontSize=12;html=1;endArrow=ERoneToMany;entryX=-0.006;entryY=0.1;entryDx=0;entryDy=0;entryPerimeter=0;exitX=0.994;exitY=0.047;exitDx=0;exitDy=0;exitPerimeter=0;" edge="1" parent="1" source="4VfXRkIPEN1HTYIcU7Gu-1" target="4VfXRkIPEN1HTYIcU7Gu-14">
          <mxGeometry width="100" height="100" relative="1" as="geometry">
            <mxPoint x="350" y="190" as="sourcePoint" />
            <mxPoint x="520" y="180" as="targetPoint" />
          </mxGeometry>
        </mxCell>
        <mxCell id="4VfXRkIPEN1HTYIcU7Gu-35" value="" style="shape=link;html=1;rounded=0;" edge="1" parent="1" source="4VfXRkIPEN1HTYIcU7Gu-28" target="4VfXRkIPEN1HTYIcU7Gu-30">
          <mxGeometry relative="1" as="geometry">
            <mxPoint x="440" y="340" as="sourcePoint" />
            <mxPoint x="600" y="340" as="targetPoint" />
          </mxGeometry>
        </mxCell>
        <mxCell id="4VfXRkIPEN1HTYIcU7Gu-36" value="1" style="resizable=0;html=1;align=right;verticalAlign=bottom;" connectable="0" vertex="1" parent="4VfXRkIPEN1HTYIcU7Gu-35">
          <mxGeometry x="1" relative="1" as="geometry" />
        </mxCell>
      </root>
    </mxGraphModel>
  </diagram>
</mxfile>
